<svg xmlns="http://www.w3.org/2000/svg" version="1.1" width="1080" height="1080" viewBox="0 0 1080 1080">
  <desc fill="#c3c3c3">Created with Fabric.js 5.2.4</desc>
  <g transform="matrix(1 0 0 1 540 540)" id="614e5d18-7a08-4692-9bfb-c592949b8292">
    <rect style="stroke: none; stroke-width: 1; stroke-dasharray: none; stroke-linecap: butt; stroke-dashoffset: 0; stroke-linejoin: miter; stroke-miterlimit: 4; fill:#c3c3c3; fill-rule: nonzero; opacity: 1; visibility: hidden;" vector-effect="non-scaling-stroke" x="-540" y="-540" rx="0" ry="0" width="1080" height="1080"/>
  </g>
  <g transform="matrix(1 0 0 1 540 540)" id="58fde276-e3ae-4919-bca9-020573a5ffb2"/>
  <g transform="matrix(1 0 0 1 540 540)">
    <g style="" vector-effect="non-scaling-stroke">
      <g transform="matrix(1 0 0 1 0 0)">
        <rect style="stroke: none; stroke-width: 1; stroke-dasharray: none; stroke-linecap: butt; stroke-dashoffset: 0; stroke-linejoin: miter; stroke-miterlimit: 4; fill:#c3c3c3; fill-rule: nonzero; opacity: 1; visibility: hidden;" vector-effect="non-scaling-stroke" x="-540" y="-540" rx="0" ry="0" width="1080" height="1080"/>
      </g>
      <g transform="matrix(1.31 0 0 1.31 0.77 0.86)">
        <path style="stroke: #c3c3c3; stroke-width: 1; stroke-dasharray: none; stroke-linecap: butt; stroke-dashoffset: 0; stroke-linejoin: miter; stroke-miterlimit: 4; fill-rule: nonzero; opacity: 1; fill: #c3c3c3;" vector-effect="non-scaling-stroke" d="M 570.107 500.254 C 505.07 470.883 502.596 344.813 502.548 341.632 L 502.548 257.054 C 497.356 -19.907 104.564 -8.58 109.455 257.052 L 109.455 341.63 C 109.409 344.811 106.933 470.881 41.894 500.252 C 34.485 503.599 30.413 511.664 32.126 519.612 C 33.837 527.561 40.866 533.238 48.997 533.238 L 213.877 533.238 C 217.257 551.832 226.049 569.13 239.496 583.141 C 257.356 601.749 280.975 611.997 305.998 611.997 C 331.023 611.997 354.642 601.749 372.5 583.141 C 385.949 569.129 394.741 551.83 398.119 533.238 L 562.999 533.238 C 571.13 533.238 578.158 527.562 579.871 519.612 C 581.586 511.664 577.516 503.6 570.107 500.254 Z M 484.434 439.859 C 491.271 460.587 500.952 481.403 514.68 498.725 L 97.32 498.725 C 111.046 481.405 120.727 460.59 127.564 439.859 L 484.434 439.859 Z M 143.97 341.736 L 143.97 257.051 C 143.97 167.708 216.656 95.022 306.001 95.022 C 395.346 95.022 468.032 167.708 468.032 257.051 L 468.032 341.877 C 468.055 344.473 468.459 371.756 475.335 405.342 L 136.663 405.342 C 143.543 371.724 143.949 344.393 143.97 341.736 Z M 306.001 577.485 C 279.66 577.485 256.671 558.493 249.292 533.239 L 362.708 533.239 C 355.329 558.493 332.344 577.485 306.001 577.485 Z" stroke-linecap="round" transform=" translate(-306, -306)"/>
      </g>
    </g>
  </g>
</svg>