<svg xmlns:inkscape="http://www.inkscape.org/namespaces/inkscape" xmlns:sodipodi="http://sodipodi.sourceforge.net/DTD/sodipodi-0.dtd" xmlns="http://www.w3.org/2000/svg" xmlns:svg="http://www.w3.org/2000/svg" version="1.1" id="svg2" width="32" height="32" viewBox="0 0 32 32" sodipodi:docname="Edit.ai">
  <defs id="defs6" fill="#ffffff">
    <clipPath clipPathUnits="userSpaceOnUse" id="clipPath16" fill="#ffffff">
      <path d="M 0,24 H 24 V 0 H 0 Z" id="path14" fill="#ffffff"/>
    </clipPath>
  </defs>
  <sodipodi:namedview id="namedview4" pagecolor="#ffffff" bordercolor="#ffffff" borderopacity="0.25" inkscape:showpageshadow="2" inkscape:pageopacity="0.0" inkscape:pagecheckerboard="0" inkscape:deskcolor="#d1d1d1" fill="#ffffff"/>
  <g id="g8" inkscape:groupmode="layer" inkscape:label="Edit" transform="matrix(1.3333333,0,0,-1.3333333,0,32)">
    <g id="g10">
      <g id="g12" clip-path="url(#clipPath16)">
        <g id="g18" transform="translate(4,20)">
          <path d="m 0,0 v -16 h 16 v 7 l 3,3.038 V -17 c 0,-1.105 -0.896,-2 -2,-2 H -1 c -1.104,0 -2,0.895 -2,2 V 1 c 0,1.104 0.896,2 2,2 H 10.01 L 7.009,0 Z m 16.48,-3.52 -8.846,-8.845 c -0.467,0.771 -1.043,1.529 -1.748,2.229 -0.712,0.709 -1.482,1.288 -2.269,1.754 L 12.48,0.48 c 0.813,-0.383 1.622,-0.924 2.348,-1.651 0.729,-0.728 1.27,-1.536 1.652,-2.349 M 6,-14 H 2 v 4 l 0.48,0.48 c 0.813,-0.385 1.621,-0.925 2.348,-1.652 0.728,-0.728 1.268,-1.535 1.652,-2.348 z m 11.635,11.634 c -0.467,0.772 -1.043,1.528 -1.748,2.229 -0.713,0.708 -1.483,1.288 -2.269,1.754 L 15,3 c 0,0 2,0 3,-1 1,-1 1,-3 1,-3 z" style="fill:#ffffff;fill-opacity:1;fill-rule:nonzero;stroke:none" id="path20"/>
        </g>
      </g>
    </g>
  </g>
</svg>