<?xml version="1.0" encoding="utf-8"?>
<svg version="1.1" x="0px" y="0px" viewBox="0 0 100 100" enable-background="new 0 0 100 100" xmlns="http://www.w3.org/2000/svg">
  <defs/>
  <path d="M 95 22.475 C 95 23.963 92.789 25 90.059 25 L 9.941 25 C 7.212 25 5 23.963 5 22.475 L 5 21.73 C 5 20.241 7.212 19 9.941 19 L 90.059 19 C 92.789 19 95 20.241 95 21.729 L 95 22.475 Z" style="fill: rgb(193, 193, 193);"/>
  <path d="M 95 47.342 C 95 48.706 92.789 50 90.059 50 L 9.941 50 C 7.212 50 5 48.706 5 47.342 L 5 46.658 C 5 45.294 7.212 44 9.941 44 L 90.059 44 C 92.789 44 95 45.294 95 46.658 L 95 47.342 Z" style="fill: rgb(193, 193, 193);"/>
  <path d="M 95 73.271 C 95 74.759 92.789 76 90.059 76 L 9.941 76 C 7.212 76 5 74.759 5 73.271 L 5 72.525 C 5 71.037 7.212 70 9.941 70 L 90.059 70 C 92.789 70 95 71.037 95 72.525 L 95 73.271 Z" style="fill: rgb(193, 193, 193);"/>
</svg>