<?xml version="1.0" encoding="utf-8"?>
<svg viewBox="0 0 24 24" x="0px" y="0px" xmlns="http://www.w3.org/2000/svg">
  <defs/>
  <title>snooze, alarm, bell</title>
  <g>
    <path d="M17,16.35V12A5,5,0,0,0,7,12v4.35L5.08,19.22A.5.5,0,0,0,5.5,20H10a2,2,0,0,0,4,0h4.5a.5.5,0,0,0,.42-.78ZM12,21a1,1,0,0,1-1-1h2A1,1,0,0,1,12,21ZM6.43,19l1.49-2.22A.54.54,0,0,0,8,16.5V12a4,4,0,0,1,8,0v4.5a.54.54,0,0,0,.08.28L17.57,19Z" style="fill: rgb(255, 255, 255);"/>
    <path d="M7,6.5A.5.5,0,0,0,6.5,6H4.71L6.85,3.85A.47.47,0,0,0,7,3.31.5.5,0,0,0,6.5,3h-3a.5.5,0,0,0,0,1H5.29L3.15,6.15A.47.47,0,0,0,3,6.69.5.5,0,0,0,3.5,7h3A.5.5,0,0,0,7,6.5Z" style="fill: rgb(255, 255, 255);"/>
    <path d="M12.5,3h.79L12.15,4.15a.47.47,0,0,0-.11.54A.5.5,0,0,0,12.5,5h2a.5.5,0,0,0,0-1h-.79l1.14-1.15A.47.47,0,0,0,15,2.31.5.5,0,0,0,14.5,2h-2a.5.5,0,0,0,0,1Z" style="fill: rgb(255, 255, 255);"/>
    <path d="M20.5,8h-.79l1.14-1.15A.47.47,0,0,0,21,6.31.5.5,0,0,0,20.5,6h-2a.5.5,0,0,0,0,1h.79L18.15,8.15a.47.47,0,0,0-.11.54A.5.5,0,0,0,18.5,9h2a.5.5,0,0,0,0-1Z" style="fill: rgb(255, 255, 255);"/>
  </g>
</svg>