<?xml version="1.0" encoding="utf-8"?>
<svg fill="none" height="24" viewBox="0 0 16 17" width="24" xmlns="http://www.w3.org/2000/svg">
  <defs/>
  <path d="M 1.75 0.5 L 14.25 0.5 M 1.75 0.5 L 1.75 4.209 C 1.75 4.679 2.013 5.132 2.482 5.466 L 4.982 7.243 C 5.958 7.938 5.958 9.062 4.982 9.757 L 2.482 11.534 C 2.013 11.868 1.75 12.321 1.75 12.791 L 1.75 16.5 M 1.75 0.5 L 0.5 0.5 M 14.25 0.5 L 14.25 4.209 C 14.25 4.679 13.987 5.132 13.518 5.466 L 11.018 7.243 C 10.042 7.938 10.042 9.062 11.018 9.757 L 13.518 11.534 C 13.987 11.868 14.25 12.321 14.25 12.791 L 14.25 16.5 M 14.25 0.5 L 15.5 0.5 M 14.25 16.5 L 1.75 16.5 M 14.25 16.5 L 15.5 16.5 M 1.75 16.5 L 0.5 16.5" stroke-linecap="round" stroke-linejoin="round" style="stroke: rgb(255, 255, 255);"/>
</svg>